<svg xmlns="http://www.w3.org/2000/svg" viewBox="0 0 23.91 23.95"><defs><style>.cls-1{fill:#fff;}</style></defs><title>ico_telephone_w_1</title><g id="Layer_2" data-name="Layer 2"><g id="Layer_2-2" data-name="Layer 2"><path class="cls-1" d="M5.92,10.11a17.65,17.65,0,0,0,6.43,7c2.52,1.54,2.65,1.42,3.49.35s1.76-2.27,2.32-2.26a39,39,0,0,1,5.46,3c.35.29.55,1.44-.43,3.42s-4.8,2.88-7.44,1.86-6.29-1.62-12.17-8.8S.67,2.9,1.34,1.76A3.87,3.87,0,0,1,4.57,0C5.85-.11,5.9.75,6.37,1.53,7.11,2.76,7.89,4.2,8.43,5s.17,1.3-.73,2.1S5.74,8.58,5.64,9A1.8,1.8,0,0,0,5.92,10.11Z"/></g></g></svg>